<svg width="16" height="16" viewBox="0 0 16 16" fill="none" xmlns="http://www.w3.org/2000/svg">
<path d="M9.53662 3.17281C10.6222 2.18586 11.9778 1.99552 13.0376 2.51363L13.2456 2.62691C14.3294 3.2793 14.9457 4.64341 14.7202 6.01266L14.6636 6.28707C14.3545 7.53238 13.6523 8.57988 12.7466 9.61715L12.3462 10.0615C11.111 11.3977 9.68279 12.5369 8.16846 13.6464C6.20338 12.2023 4.38617 10.7387 2.98779 8.87301L2.69678 8.47164L2.45557 8.10934C1.95925 7.32733 1.63402 6.5514 1.57568 5.71383L1.56689 5.51949C1.54139 4.22848 2.22566 3.08328 3.20752 2.55856L3.40771 2.46188C4.42083 2.02456 5.69493 2.22816 6.68896 3.07711L6.88428 3.25484C7.09929 3.46566 7.32249 3.67985 7.56689 3.91695L8.21729 4.54781L8.84326 3.89449C9.06648 3.66163 9.21381 3.4907 9.37158 3.33102L9.53662 3.17281Z" fill="black" stroke="black" stroke-width="1.8"/>
</svg>
