<svg width="16" height="17" viewBox="0 0 16 17" fill="none" xmlns="http://www.w3.org/2000/svg">
<path d="M9.27197 2.93828C10.4631 1.8268 11.989 1.58463 13.2075 2.19609L13.4468 2.32988C14.681 3.0922 15.3676 4.67024 15.1147 6.24297L15.0513 6.55742C14.7192 7.93041 13.9678 9.06685 13.0425 10.1541L12.6362 10.618C11.3109 12.0894 9.77427 13.3265 8.16846 14.5242C6.11277 12.9837 4.16352 11.4094 2.67041 9.36504L2.37256 8.94121V8.94023C1.72179 7.9807 1.2523 6.99788 1.17725 5.89531L1.16748 5.67265C1.13906 4.19386 1.90069 2.86433 3.02393 2.24883L3.25342 2.13554C4.49576 1.58517 6.03951 1.90751 7.15967 3.03398V3.033C7.37398 3.24865 7.59413 3.46561 7.84131 3.71172L8.20654 4.07597L8.55908 3.69804C8.76478 3.47781 8.92461 3.28908 9.09521 3.11211L9.27197 2.93828Z" stroke="#C4C4C4"/>
</svg>
